SplineFontDB: 3.0
FontName: OnesizeMono
FullName: Onesize Mono
FamilyName: Onesize Mono
Weight: Book
Copyright: Generated by Fontographer 4.1J
UComments: "I modified Yuji Saiki's original Onesize font to be monospace.+AAoA-Although I have not been able to contact him I hope it's okay.+AAoACgAA-Michael Zijlstra"
FontLog: "27 april 2019, made Monospace version"
Version: 1.0.0 (c) 2019 Yuji Saiki, Michael Zijlstra
ItalicAngle: 0
UnderlinePosition: -146
UnderlineWidth: 20
Ascent: 768
Descent: 256
InvalidEm: 0
sfntRevision: 0x00010000
LayerCount: 2
Layer: 0 1 "Back" 1
Layer: 1 1 "Fore" 0
XUID: [1021 976 -901222664 2668050]
StyleMap: 0x0040
FSType: 0
OS2Version: 0
OS2_WeightWidthSlopeOnly: 0
OS2_UseTypoMetrics: 0
CreationTime: 951179108
ModificationTime: 1556348853
PfmFamily: 81
TTFWeight: 400
TTFWidth: 5
LineGap: 0
VLineGap: 0
Panose: 0 0 4 0 0 0 0 0 0 0
OS2TypoAscent: 768
OS2TypoAOffset: 0
OS2TypoDescent: -256
OS2TypoDOffset: 0
OS2TypoLinegap: 0
OS2WinAscent: 768
OS2WinAOffset: 0
OS2WinDescent: 171
OS2WinDOffset: 0
HheadAscent: 768
HheadAOffset: 0
HheadDescent: -256
HheadDOffset: 0
OS2SubXSize: 717
OS2SubYSize: 666
OS2SubXOff: 0
OS2SubYOff: 146
OS2SupXSize: 717
OS2SupYSize: 666
OS2SupXOff: 0
OS2SupYOff: 464
OS2StrikeYSize: 51
OS2StrikeYPos: 265
OS2Vendor: 'Alts'
OS2UnicodeRanges: 00000000.00000000.00000000.00000000
MarkAttachClasses: 1
DEI: 91125
ShortTable: maxp 16
  1
  0
  99
  60
  11
  0
  0
  2
  8
  64
  10
  0
  64
  0
  0
  0
EndShort
LangName: 1033 "" "" "Regular" "Macromedia Fontographer 4.1J Onesize Mono" "" "1.0.0 (c) 2000 Yuji Saiki, Michael Zijlstra"
Encoding: UnicodeBmp
UnicodeInterp: none
NameList: AGL For New Fonts
DisplaySize: -48
AntiAlias: 1
FitToEm: 0
WinInfo: 96 16 7
BeginPrivate: 0
EndPrivate
TeXData: 1 0 0 349175 174587 116391 437256 1048576 116391 783286 444596 497025 792723 393216 433062 380633 303038 157286 324010 404750 52429 2506097 1059062 262144
BeginChars: 65539 99

StartChar: exclam
Encoding: 33 33 4
Width: 683
Flags: W
LayerCount: 2
Fore
SplineSet
427 171 m 5,0,-1
 256 171 l 1,1,-1
 256 597 l 1,2,-1
 427 597 l 1,3,-1
 427 171 l 5,0,-1
427 0 m 1,4,-1
 256 0 l 1,5,-1
 256 85 l 1,6,-1
 427 85 l 1,7,-1
 427 0 l 1,4,-1
EndSplineSet
Validated: 1
EndChar

StartChar: quotedbl
Encoding: 34 34 5
Width: 683
Flags: W
LayerCount: 2
Fore
SplineSet
302 683 m 1,0,-1
 302 512 l 1,1,-1
 216 512 l 1,2,-1
 216 683 l 1,3,-1
 302 683 l 1,0,-1
472 683 m 1,4,-1
 472 512 l 1,5,-1
 387 512 l 1,6,-1
 387 683 l 1,7,-1
 472 683 l 1,4,-1
EndSplineSet
Validated: 1
EndChar

StartChar: numbersign
Encoding: 35 35 6
Width: 683
Flags: W
LayerCount: 2
Fore
SplineSet
558 683 m 1,0,-1
 558 597 l 1,1,-1
 644 597 l 1,2,-1
 644 512 l 1,3,-1
 558 512 l 1,4,-1
 558 427 l 1,5,-1
 644 427 l 1,6,-1
 644 341 l 1,7,-1
 558 341 l 1,8,-1
 558 256 l 1,9,-1
 388 256 l 1,10,-1
 388 341 l 1,11,-1
 302 341 l 1,12,-1
 302 256 l 1,13,-1
 132 256 l 1,14,-1
 132 341 l 1,15,-1
 46 341 l 1,16,-1
 46 427 l 1,17,-1
 132 427 l 1,18,-1
 132 512 l 1,19,-1
 46 512 l 1,20,-1
 46 597 l 1,21,-1
 132 597 l 1,22,-1
 132 683 l 1,23,-1
 302 683 l 1,24,-1
 302 597 l 1,25,-1
 388 597 l 1,26,-1
 388 683 l 1,27,-1
 558 683 l 1,0,-1
302 427 m 1,28,-1
 388 427 l 1,29,-1
 388 512 l 1,30,-1
 302 512 l 1,31,-1
 302 427 l 1,28,-1
EndSplineSet
Validated: 1
EndChar

StartChar: dollar
Encoding: 36 36 7
Width: 683
Flags: W
LayerCount: 2
Fore
SplineSet
632 427 m 1,0,-1
 461 427 l 1,1,-1
 461 512 l 1,2,-1
 376 512 l 1,3,-1
 376 341 l 1,4,-1
 546 341 l 1,5,-1
 546 256 l 1,6,-1
 632 256 l 1,7,-1
 632 85 l 1,8,-1
 546 85 l 1,9,-1
 546 0 l 1,10,-1
 376 0 l 1,11,-1
 376 -85 l 1,12,-1
 290 -85 l 1,13,-1
 290 0 l 1,14,-1
 120 0 l 1,15,-1
 120 85 l 1,16,-1
 34 85 l 1,17,-1
 34 171 l 1,18,-1
 205 171 l 1,19,-1
 205 85 l 1,20,-1
 290 85 l 1,21,-1
 290 256 l 1,22,-1
 120 256 l 1,23,-1
 120 341 l 1,24,-1
 34 341 l 1,25,-1
 34 512 l 1,26,-1
 120 512 l 1,27,-1
 120 597 l 1,28,-1
 290 597 l 1,29,-1
 290 683 l 1,30,-1
 376 683 l 1,31,-1
 376 597 l 1,32,-1
 546 597 l 1,33,-1
 546 512 l 1,34,-1
 632 512 l 1,35,-1
 632 427 l 1,0,-1
290 341 m 1,36,-1
 290 512 l 1,37,-1
 205 512 l 1,38,-1
 205 341 l 1,39,-1
 290 341 l 1,36,-1
461 256 m 1,40,-1
 376 256 l 1,41,-1
 376 85 l 1,42,-1
 461 85 l 1,43,-1
 461 256 l 1,40,-1
EndSplineSet
Validated: 1
EndChar

StartChar: percent
Encoding: 37 37 8
Width: 683
Flags: W
LayerCount: 2
Fore
SplineSet
383 427 m 1,0,-1
 298 427 l 1,1,-1
 298 341 l 1,2,-1
 42 341 l 1,3,-1
 42 427 l 1,4,-1
 -44 427 l 1,5,-1
 -44 512 l 1,6,-1
 42 512 l 1,7,-1
 42 597 l 1,8,-1
 298 597 l 1,9,-1
 298 512 l 1,10,-1
 383 512 l 1,11,-1
 383 427 l 1,0,-1
127 427 m 1,12,-1
 212 427 l 1,13,-1
 212 512 l 1,14,-1
 127 512 l 1,15,-1
 127 427 l 1,12,-1
383 341 m 1,16,-1
 383 256 l 1,17,-1
 298 256 l 1,18,-1
 298 341 l 1,19,-1
 383 341 l 1,16,-1
212 256 m 1,20,-1
 298 256 l 1,21,-1
 298 171 l 1,22,-1
 212 171 l 1,23,-1
 212 256 l 1,20,-1
127 85 m 1,24,-1
 127 171 l 1,25,-1
 212 171 l 1,26,-1
 212 85 l 1,27,-1
 127 85 l 1,24,-1
42 0 m 1,28,-1
 42 85 l 1,29,-1
 127 85 l 1,30,-1
 127 0 l 1,31,-1
 42 0 l 1,28,-1
639 171 m 1,32,-1
 724 171 l 1,33,-1
 724 85 l 1,34,-1
 639 85 l 1,35,-1
 639 0 l 1,36,-1
 383 0 l 1,37,-1
 383 85 l 1,38,-1
 298 85 l 1,39,-1
 298 171 l 1,40,-1
 383 171 l 1,41,-1
 383 256 l 1,42,-1
 639 256 l 1,43,-1
 639 171 l 1,32,-1
468 85 m 1,44,-1
 554 85 l 1,45,-1
 554 171 l 1,46,-1
 468 171 l 1,47,-1
 468 85 l 1,44,-1
468 341 m 1,48,-1
 383 341 l 1,49,-1
 383 427 l 1,50,-1
 468 427 l 1,51,-1
 468 341 l 1,48,-1
554 512 m 1,52,-1
 554 427 l 1,53,-1
 468 427 l 1,54,-1
 468 512 l 1,55,-1
 554 512 l 1,52,-1
639 597 m 1,56,-1
 639 512 l 1,57,-1
 554 512 l 1,58,-1
 554 597 l 1,59,-1
 639 597 l 1,56,-1
EndSplineSet
Validated: 5
EndChar

StartChar: ampersand
Encoding: 38 38 9
Width: 683
Flags: W
LayerCount: 2
Fore
SplineSet
467 256 m 1,0,-1
 467 171 l 1,1,-1
 552 171 l 1,2,-1
 552 85 l 1,3,-1
 638 85 l 1,4,-1
 638 0 l 1,5,-1
 467 0 l 1,6,-1
 467 85 l 1,7,-1
 382 85 l 1,8,-1
 382 171 l 1,9,-1
 296 171 l 1,10,-1
 296 256 l 1,11,-1
 211 256 l 1,12,-1
 211 341 l 5,13,-1
 296 341 l 1,14,-1
 296 427 l 1,15,-1
 382 427 l 1,16,-1
 382 512 l 1,17,-1
 211 512 l 1,18,-1
 211 341 l 1,19,-1
 126 341 l 1,20,-1
 126 427 l 1,21,-1
 40 427 l 1,22,-1
 40 512 l 1,23,-1
 126 512 l 1,24,-1
 126 597 l 1,25,-1
 467 597 l 1,26,-1
 467 512 l 1,27,-1
 552 512 l 1,28,-1
 552 427 l 1,29,-1
 467 427 l 1,30,-1
 467 341 l 1,31,-1
 382 341 l 1,32,-1
 382 256 l 1,33,-1
 467 256 l 1,0,-1
552 171 m 1,34,-1
 552 256 l 1,35,-1
 638 256 l 1,36,-1
 638 171 l 1,37,-1
 552 171 l 1,34,-1
211 85 m 1,38,-1
 382 85 l 1,39,-1
 382 0 l 1,40,-1
 126 0 l 1,41,-1
 126 85 l 1,42,-1
 40 85 l 1,43,-1
 40 256 l 1,44,-1
 211 256 l 1,45,-1
 211 85 l 1,38,-1
EndSplineSet
Validated: 5
EndChar

StartChar: quotesingle
Encoding: 39 39 10
Width: 683
Flags: W
LayerCount: 2
Fore
SplineSet
382 683 m 1,0,-1
 382 512 l 1,1,-1
 296 512 l 1,2,-1
 296 683 l 1,3,-1
 382 683 l 1,0,-1
EndSplineSet
Validated: 1
EndChar

StartChar: parenleft
Encoding: 40 40 11
Width: 683
Flags: W
LayerCount: 2
Fore
SplineSet
385 512 m 1,0,-1
 385 597 l 1,1,-1
 470 597 l 1,2,-1
 470 512 l 1,3,-1
 385 512 l 1,0,-1
300 427 m 1,4,-1
 300 512 l 1,5,-1
 385 512 l 1,6,-1
 385 85 l 1,7,-1
 300 85 l 1,8,-1
 300 171 l 1,9,-1
 214 171 l 1,10,-1
 214 427 l 1,11,-1
 300 427 l 1,4,-1
470 0 m 1,12,-1
 385 0 l 1,13,-1
 385 85 l 1,14,-1
 470 85 l 1,15,-1
 470 0 l 1,12,-1
EndSplineSet
Validated: 5
EndChar

StartChar: parenright
Encoding: 41 41 12
Width: 683
Flags: W
LayerCount: 2
Fore
SplineSet
224 597 m 1,0,-1
 310 597 l 1,1,-1
 310 512 l 1,2,-1
 224 512 l 1,3,-1
 224 597 l 1,0,-1
395 512 m 1,4,-1
 395 427 l 1,5,-1
 480 427 l 1,6,-1
 480 171 l 1,7,-1
 395 171 l 1,8,-1
 395 85 l 1,9,-1
 310 85 l 1,10,-1
 310 512 l 1,11,-1
 395 512 l 1,4,-1
224 0 m 1,12,-1
 224 85 l 1,13,-1
 310 85 l 1,14,-1
 310 0 l 1,15,-1
 224 0 l 1,12,-1
EndSplineSet
Validated: 5
EndChar

StartChar: asterisk
Encoding: 42 42 13
Width: 683
Flags: W
LayerCount: 2
Fore
SplineSet
86 511 m 1,0,-1
 171 511 l 1,1,-1
 171 426 l 1,2,-1
 86 426 l 1,3,-1
 86 511 l 1,0,-1
427 597 m 1,4,-1
 427 426 l 1,5,-1
 512 426 l 1,6,-1
 512 341 l 1,7,-1
 427 341 l 1,8,-1
 427 170 l 1,9,-1
 256 170 l 1,10,-1
 256 341 l 1,11,-1
 171 341 l 1,12,-1
 171 426 l 1,13,-1
 256 426 l 1,14,-1
 256 597 l 1,15,-1
 427 597 l 1,4,-1
512 426 m 1,16,-1
 512 511 l 1,17,-1
 597 511 l 1,18,-1
 597 426 l 1,19,-1
 512 426 l 1,16,-1
86 256 m 1,20,-1
 86 341 l 1,21,-1
 171 341 l 1,22,-1
 171 256 l 1,23,-1
 86 256 l 1,20,-1
597 256 m 1,24,-1
 512 256 l 1,25,-1
 512 341 l 1,26,-1
 597 341 l 1,27,-1
 597 256 l 1,24,-1
EndSplineSet
Validated: 5
EndChar

StartChar: plus
Encoding: 43 43 14
Width: 683
Flags: W
LayerCount: 2
Fore
SplineSet
427 341 m 1,0,-1
 597 341 l 1,1,-1
 597 256 l 1,2,-1
 427 256 l 1,3,-1
 427 85 l 1,4,-1
 256 85 l 1,5,-1
 256 256 l 1,6,-1
 85 256 l 1,7,-1
 85 341 l 1,8,-1
 256 341 l 1,9,-1
 256 512 l 1,10,-1
 427 512 l 1,11,-1
 427 341 l 1,0,-1
EndSplineSet
Validated: 1
EndChar

StartChar: comma
Encoding: 44 44 15
Width: 683
Flags: W
LayerCount: 2
Fore
SplineSet
310 171 m 1,0,-1
 480 171 l 1,1,-1
 480 0 l 1,2,-1
 395 0 l 1,3,-1
 395 -85 l 1,4,-1
 224 -85 l 1,5,-1
 224 0 l 1,6,-1
 310 0 l 1,7,-1
 310 171 l 1,0,-1
EndSplineSet
Validated: 1
EndChar

StartChar: hyphen
Encoding: 45 45 16
AltUni2: 002010.ffffffff.0
Width: 683
Flags: W
LayerCount: 2
Fore
SplineSet
130 341 m 1,0,-1
 557 341 l 1,1,-1
 557 256 l 1,2,-1
 130 256 l 1,3,-1
 130 341 l 1,0,-1
EndSplineSet
Validated: 1
EndChar

StartChar: period
Encoding: 46 46 17
Width: 683
Flags: W
LayerCount: 2
Fore
SplineSet
257 171 m 1,0,-1
 428 171 l 1,1,-1
 428 0 l 1,2,-1
 257 0 l 1,3,-1
 257 171 l 1,0,-1
EndSplineSet
Validated: 1
EndChar

StartChar: slash
Encoding: 47 47 18
Width: 683
Flags: W
LayerCount: 2
Fore
SplineSet
387 682 m 1,0,-1
 558 682 l 1,1,-1
 558 597 l 1,2,-1
 472 597 l 1,3,-1
 472 426 l 1,4,-1
 387 426 l 1,5,-1
 387 256 l 1,6,-1
 302 256 l 1,7,-1
 302 85 l 1,8,-1
 217 85 l 1,9,-1
 217 0 l 1,10,-1
 131 0 l 1,11,-1
 131 170 l 1,12,-1
 217 170 l 1,13,-1
 217 341 l 1,14,-1
 302 341 l 1,15,-1
 302 511 l 1,16,-1
 387 511 l 1,17,-1
 387 682 l 1,0,-1
EndSplineSet
Validated: 1
EndChar

StartChar: zero
Encoding: 48 48 19
Width: 683
Flags: W
LayerCount: 2
Fore
SplineSet
512 597 m 1,0,-1
 512 512 l 1,1,-1
 597 512 l 1,2,-1
 597 85 l 1,3,-1
 512 85 l 1,4,-1
 512 0 l 1,5,-1
 171 0 l 1,6,-1
 171 85 l 1,7,-1
 85 85 l 1,8,-1
 85 512 l 1,9,-1
 171 512 l 1,10,-1
 171 597 l 1,11,-1
 512 597 l 1,0,-1
427 85 m 1,12,-1
 427 512 l 1,13,-1
 256 512 l 1,14,-1
 256 85 l 1,15,-1
 427 85 l 1,12,-1
EndSplineSet
Validated: 1
EndChar

StartChar: one
Encoding: 49 49 20
Width: 683
Flags: W
LayerCount: 2
Fore
SplineSet
296 0 m 1,0,-1
 296 427 l 1,1,-1
 210 427 l 1,2,-1
 210 512 l 1,3,-1
 296 512 l 1,4,-1
 296 597 l 1,5,-1
 466 597 l 1,6,-1
 466 0 l 1,7,-1
 296 0 l 1,0,-1
EndSplineSet
Validated: 1
EndChar

StartChar: two
Encoding: 50 50 21
Width: 683
Flags: W
LayerCount: 2
Fore
SplineSet
512 597 m 1,0,-1
 512 512 l 1,1,-1
 597 512 l 1,2,-1
 597 341 l 1,3,-1
 512 341 l 1,4,-1
 512 256 l 1,5,-1
 427 256 l 1,6,-1
 427 171 l 1,7,-1
 341 171 l 1,8,-1
 341 85 l 1,9,-1
 597 85 l 1,10,-1
 597 0 l 1,11,-1
 85 0 l 1,12,-1
 85 85 l 1,13,-1
 171 85 l 1,14,-1
 171 171 l 1,15,-1
 256 171 l 1,16,-1
 256 256 l 1,17,-1
 341 256 l 1,18,-1
 341 341 l 1,19,-1
 427 341 l 1,20,-1
 427 512 l 1,21,-1
 256 512 l 1,22,-1
 256 427 l 1,23,-1
 85 427 l 1,24,-1
 85 512 l 1,25,-1
 171 512 l 1,26,-1
 171 597 l 1,27,-1
 512 597 l 1,0,-1
EndSplineSet
Validated: 1
EndChar

StartChar: three
Encoding: 51 51 22
Width: 683
Flags: W
LayerCount: 2
Fore
SplineSet
512 597 m 1,0,-1
 512 512 l 1,1,-1
 597 512 l 1,2,-1
 597 341 l 1,3,-1
 512 341 l 1,4,-1
 512 256 l 1,5,-1
 597 256 l 1,6,-1
 597 85 l 1,7,-1
 512 85 l 1,8,-1
 512 0 l 1,9,-1
 171 0 l 1,10,-1
 171 85 l 1,11,-1
 85 85 l 1,12,-1
 85 171 l 1,13,-1
 256 171 l 1,14,-1
 256 85 l 1,15,-1
 427 85 l 1,16,-1
 427 256 l 1,17,-1
 256 256 l 1,18,-1
 256 341 l 1,19,-1
 427 341 l 1,20,-1
 427 512 l 1,21,-1
 256 512 l 1,22,-1
 256 427 l 1,23,-1
 85 427 l 1,24,-1
 85 512 l 1,25,-1
 171 512 l 1,26,-1
 171 597 l 1,27,-1
 512 597 l 1,0,-1
EndSplineSet
Validated: 1
EndChar

StartChar: four
Encoding: 52 52 23
Width: 683
Flags: W
LayerCount: 2
Fore
SplineSet
256 427 m 1,0,-1
 256 341 l 1,1,-1
 171 341 l 1,2,-1
 171 427 l 1,3,-1
 256 427 l 1,0,-1
512 597 m 1,4,-1
 512 256 l 1,5,-1
 597 256 l 1,6,-1
 597 171 l 1,7,-1
 512 171 l 1,8,-1
 512 0 l 1,9,-1
 341 0 l 1,10,-1
 341 171 l 1,11,-1
 85 171 l 1,12,-1
 85 341 l 1,13,-1
 171 341 l 1,14,-1
 171 256 l 1,15,-1
 341 256 l 1,16,-1
 341 427 l 1,17,-1
 256 427 l 1,18,-1
 256 512 l 1,19,-1
 341 512 l 1,20,-1
 341 597 l 1,21,-1
 512 597 l 1,4,-1
EndSplineSet
Validated: 5
EndChar

StartChar: five
Encoding: 53 53 24
Width: 683
Flags: W
LayerCount: 2
Fore
SplineSet
85 597 m 1,0,-1
 597 597 l 1,1,-1
 597 512 l 1,2,-1
 256 512 l 1,3,-1
 256 427 l 1,4,-1
 512 427 l 1,5,-1
 512 341 l 1,6,-1
 597 341 l 1,7,-1
 597 85 l 1,8,-1
 512 85 l 1,9,-1
 512 0 l 1,10,-1
 171 0 l 1,11,-1
 171 85 l 1,12,-1
 85 85 l 1,13,-1
 85 171 l 1,14,-1
 256 171 l 1,15,-1
 256 85 l 1,16,-1
 427 85 l 1,17,-1
 427 341 l 1,18,-1
 85 341 l 1,19,-1
 85 597 l 1,0,-1
EndSplineSet
Validated: 1
EndChar

StartChar: six
Encoding: 54 54 25
Width: 683
Flags: W
LayerCount: 2
Fore
SplineSet
512 427 m 1,0,-1
 512 341 l 1,1,-1
 597 341 l 1,2,-1
 597 85 l 1,3,-1
 512 85 l 1,4,-1
 512 0 l 1,5,-1
 171 0 l 1,6,-1
 171 85 l 1,7,-1
 85 85 l 1,8,-1
 85 512 l 1,9,-1
 171 512 l 1,10,-1
 171 597 l 1,11,-1
 512 597 l 1,12,-1
 512 512 l 1,13,-1
 256 512 l 1,14,-1
 256 427 l 1,15,-1
 512 427 l 1,0,-1
427 85 m 1,16,-1
 427 341 l 1,17,-1
 256 341 l 1,18,-1
 256 85 l 1,19,-1
 427 85 l 1,16,-1
EndSplineSet
Validated: 1
EndChar

StartChar: seven
Encoding: 55 55 26
Width: 683
Flags: W
LayerCount: 2
Fore
SplineSet
85 597 m 1,0,-1
 597 597 l 1,1,-1
 597 341 l 1,2,-1
 512 341 l 1,3,-1
 512 256 l 1,4,-1
 427 256 l 1,5,-1
 427 0 l 1,6,-1
 256 0 l 1,7,-1
 256 256 l 1,8,-1
 341 256 l 1,9,-1
 341 341 l 1,10,-1
 427 341 l 1,11,-1
 427 512 l 1,12,-1
 85 512 l 1,13,-1
 85 597 l 1,0,-1
EndSplineSet
Validated: 1
EndChar

StartChar: eight
Encoding: 56 56 27
Width: 683
Flags: W
LayerCount: 2
Fore
SplineSet
512 597 m 1,0,-1
 512 512 l 1,1,-1
 597 512 l 1,2,-1
 597 341 l 1,3,-1
 512 341 l 1,4,-1
 512 256 l 1,5,-1
 597 256 l 1,6,-1
 597 85 l 1,7,-1
 512 85 l 1,8,-1
 512 0 l 1,9,-1
 171 0 l 1,10,-1
 171 85 l 1,11,-1
 85 85 l 1,12,-1
 85 256 l 1,13,-1
 171 256 l 1,14,-1
 171 341 l 1,15,-1
 85 341 l 1,16,-1
 85 512 l 1,17,-1
 171 512 l 1,18,-1
 171 597 l 1,19,-1
 512 597 l 1,0,-1
427 85 m 1,20,-1
 427 256 l 1,21,-1
 256 256 l 1,22,-1
 256 85 l 1,23,-1
 427 85 l 1,20,-1
427 341 m 1,24,-1
 427 512 l 1,25,-1
 256 512 l 1,26,-1
 256 341 l 1,27,-1
 427 341 l 1,24,-1
EndSplineSet
Validated: 1
EndChar

StartChar: nine
Encoding: 57 57 28
Width: 683
Flags: W
LayerCount: 2
Fore
SplineSet
512 512 m 1,0,-1
 597 512 l 1,1,-1
 597 85 l 1,2,-1
 512 85 l 1,3,-1
 512 0 l 1,4,-1
 171 0 l 1,5,-1
 171 85 l 1,6,-1
 427 85 l 1,7,-1
 427 171 l 1,8,-1
 171 171 l 1,9,-1
 171 256 l 1,10,-1
 85 256 l 1,11,-1
 85 512 l 1,12,-1
 171 512 l 1,13,-1
 171 597 l 1,14,-1
 512 597 l 1,15,-1
 512 512 l 1,0,-1
256 256 m 1,16,-1
 427 256 l 1,17,-1
 427 512 l 1,18,-1
 256 512 l 1,19,-1
 256 256 l 1,16,-1
EndSplineSet
Validated: 1
EndChar

StartChar: colon
Encoding: 58 58 29
Width: 683
Flags: W
LayerCount: 2
Fore
SplineSet
272 512 m 1,0,-1
 443 512 l 1,1,-1
 443 341 l 1,2,-1
 272 341 l 1,3,-1
 272 512 l 1,0,-1
272 171 m 1,4,-1
 443 171 l 1,5,-1
 443 0 l 1,6,-1
 272 0 l 1,7,-1
 272 171 l 1,4,-1
EndSplineSet
Validated: 1
EndChar

StartChar: semicolon
Encoding: 59 59 30
Width: 683
Flags: W
LayerCount: 2
Fore
SplineSet
275 512 m 1,0,-1
 445 512 l 1,1,-1
 445 341 l 1,2,-1
 275 341 l 1,3,-1
 275 512 l 1,0,-1
275 171 m 1,4,-1
 445 171 l 1,5,-1
 445 0 l 1,6,-1
 360 0 l 1,7,-1
 360 -85 l 1,8,-1
 189 -85 l 1,9,-1
 189 0 l 1,10,-1
 275 0 l 1,11,-1
 275 171 l 1,4,-1
EndSplineSet
Validated: 1
EndChar

StartChar: less
Encoding: 60 60 31
Width: 683
Flags: W
LayerCount: 2
Fore
SplineSet
249 171 m 1,0,-1
 249 256 l 1,1,-1
 163 256 l 1,2,-1
 163 341 l 1,3,-1
 249 341 l 1,4,-1
 249 427 l 1,5,-1
 334 427 l 1,6,-1
 334 512 l 1,7,-1
 419 512 l 1,8,-1
 419 597 l 1,9,-1
 505 597 l 1,10,-1
 505 427 l 1,11,-1
 419 427 l 1,12,-1
 419 341 l 1,13,-1
 334 341 l 1,14,-1
 334 256 l 1,15,-1
 419 256 l 1,16,-1
 419 171 l 1,17,-1
 505 171 l 1,18,-1
 505 0 l 1,19,-1
 419 0 l 1,20,-1
 419 85 l 1,21,-1
 334 85 l 1,22,-1
 334 171 l 1,23,-1
 249 171 l 1,0,-1
EndSplineSet
Validated: 1
EndChar

StartChar: equal
Encoding: 61 61 32
Width: 683
Flags: W
LayerCount: 2
Fore
SplineSet
130 427 m 1,0,-1
 557 427 l 1,1,-1
 557 341 l 1,2,-1
 130 341 l 1,3,-1
 130 427 l 1,0,-1
130 256 m 1,4,-1
 557 256 l 1,5,-1
 557 171 l 1,6,-1
 130 171 l 1,7,-1
 130 256 l 1,4,-1
EndSplineSet
Validated: 1
EndChar

StartChar: greater
Encoding: 62 62 33
Width: 683
Flags: W
LayerCount: 2
Fore
SplineSet
433 427 m 1,0,-1
 433 341 l 1,1,-1
 519 341 l 1,2,-1
 519 256 l 1,3,-1
 433 256 l 1,4,-1
 433 171 l 1,5,-1
 348 171 l 1,6,-1
 348 85 l 1,7,-1
 263 85 l 1,8,-1
 263 0 l 1,9,-1
 177 0 l 1,10,-1
 177 171 l 1,11,-1
 263 171 l 1,12,-1
 263 256 l 1,13,-1
 348 256 l 1,14,-1
 348 341 l 1,15,-1
 263 341 l 1,16,-1
 263 427 l 1,17,-1
 177 427 l 1,18,-1
 177 597 l 1,19,-1
 263 597 l 1,20,-1
 263 512 l 1,21,-1
 348 512 l 1,22,-1
 348 427 l 1,23,-1
 433 427 l 1,0,-1
EndSplineSet
Validated: 1
EndChar

StartChar: question
Encoding: 63 63 34
Width: 683
Flags: W
LayerCount: 2
Fore
SplineSet
512 597 m 1,0,-1
 512 511 l 1,1,-1
 597 511 l 1,2,-1
 597 341 l 1,3,-1
 512 341 l 1,4,-1
 512 256 l 1,5,-1
 426 256 l 1,6,-1
 426 170 l 1,7,-1
 256 170 l 1,8,-1
 256 256 l 1,9,-1
 341 256 l 1,10,-1
 341 341 l 1,11,-1
 426 341 l 1,12,-1
 426 511 l 1,13,-1
 256 511 l 1,14,-1
 256 426 l 1,15,-1
 85 426 l 1,16,-1
 85 511 l 1,17,-1
 171 511 l 1,18,-1
 171 597 l 1,19,-1
 512 597 l 1,0,-1
256 85 m 1,20,-1
 426 85 l 1,21,-1
 426 0 l 1,22,-1
 256 0 l 1,23,-1
 256 85 l 1,20,-1
EndSplineSet
Validated: 1
EndChar

StartChar: at
Encoding: 64 64 35
Width: 683
Flags: W
LayerCount: 2
Fore
SplineSet
512 597 m 1,0,-1
 512 512 l 1,1,-1
 597 512 l 1,2,-1
 597 256 l 1,3,-1
 512 256 l 1,4,-1
 512 427 l 1,5,-1
 427 427 l 1,6,-1
 427 512 l 1,7,-1
 256 512 l 1,8,-1
 256 427 l 1,9,-1
 427 427 l 1,10,-1
 427 256 l 1,11,-1
 512 256 l 1,12,-1
 512 171 l 1,13,-1
 256 171 l 1,14,-1
 256 85 l 1,15,-1
 512 85 l 1,16,-1
 512 0 l 1,17,-1
 171 0 l 1,18,-1
 171 85 l 1,19,-1
 85 85 l 1,20,-1
 85 512 l 1,21,-1
 171 512 l 1,22,-1
 171 597 l 1,23,-1
 512 597 l 1,0,-1
341 341 m 1,24,-1
 256 341 l 1,25,-1
 256 256 l 1,26,-1
 341 256 l 1,27,-1
 341 341 l 1,24,-1
EndSplineSet
Validated: 5
EndChar

StartChar: A
Encoding: 65 65 36
Width: 683
Flags: W
LayerCount: 2
Fore
SplineSet
512 597 m 1,0,-1
 512 512 l 1,1,-1
 597 512 l 1,2,-1
 597 0 l 1,3,-1
 427 0 l 1,4,-1
 427 256 l 1,5,-1
 256 256 l 1,6,-1
 256 0 l 1,7,-1
 85 0 l 1,8,-1
 85 512 l 1,9,-1
 171 512 l 1,10,-1
 171 597 l 1,11,-1
 512 597 l 1,0,-1
427 341 m 1,12,-1
 427 512 l 1,13,-1
 256 512 l 1,14,-1
 256 341 l 1,15,-1
 427 341 l 1,12,-1
EndSplineSet
Validated: 1
EndChar

StartChar: B
Encoding: 66 66 37
Width: 683
Flags: W
LayerCount: 2
Fore
SplineSet
512 597 m 1,0,-1
 512 512 l 1,1,-1
 597 512 l 1,2,-1
 597 341 l 1,3,-1
 512 341 l 1,4,-1
 512 256 l 1,5,-1
 597 256 l 1,6,-1
 597 85 l 1,7,-1
 512 85 l 1,8,-1
 512 0 l 1,9,-1
 85 0 l 1,10,-1
 85 597 l 1,11,-1
 512 597 l 1,0,-1
427 85 m 1,12,-1
 427 256 l 1,13,-1
 256 256 l 1,14,-1
 256 85 l 1,15,-1
 427 85 l 1,12,-1
427 341 m 1,16,-1
 427 512 l 1,17,-1
 256 512 l 1,18,-1
 256 341 l 1,19,-1
 427 341 l 1,16,-1
EndSplineSet
Validated: 1
EndChar

StartChar: C
Encoding: 67 67 38
Width: 683
Flags: W
LayerCount: 2
Fore
SplineSet
512 597 m 1,0,-1
 512 512 l 1,1,-1
 597 512 l 1,2,-1
 597 427 l 1,3,-1
 427 427 l 1,4,-1
 427 512 l 1,5,-1
 256 512 l 1,6,-1
 256 85 l 1,7,-1
 427 85 l 1,8,-1
 427 171 l 1,9,-1
 597 171 l 1,10,-1
 597 85 l 1,11,-1
 512 85 l 1,12,-1
 512 0 l 1,13,-1
 171 0 l 1,14,-1
 171 85 l 1,15,-1
 85 85 l 1,16,-1
 85 512 l 1,17,-1
 171 512 l 1,18,-1
 171 597 l 1,19,-1
 512 597 l 1,0,-1
EndSplineSet
Validated: 1
EndChar

StartChar: D
Encoding: 68 68 39
Width: 683
Flags: W
LayerCount: 2
Fore
SplineSet
512 597 m 1,0,-1
 512 512 l 1,1,-1
 597 512 l 1,2,-1
 597 85 l 1,3,-1
 512 85 l 1,4,-1
 512 0 l 1,5,-1
 85 0 l 1,6,-1
 85 597 l 1,7,-1
 512 597 l 1,0,-1
427 85 m 1,8,-1
 427 512 l 1,9,-1
 256 512 l 1,10,-1
 256 85 l 1,11,-1
 427 85 l 1,8,-1
EndSplineSet
Validated: 1
EndChar

StartChar: E
Encoding: 69 69 40
Width: 683
Flags: W
LayerCount: 2
Fore
SplineSet
85 597 m 1,0,-1
 597 597 l 1,1,-1
 597 512 l 1,2,-1
 256 512 l 1,3,-1
 256 341 l 1,4,-1
 512 341 l 1,5,-1
 512 256 l 1,6,-1
 256 256 l 1,7,-1
 256 85 l 1,8,-1
 597 85 l 1,9,-1
 597 0 l 1,10,-1
 85 0 l 1,11,-1
 85 597 l 1,0,-1
EndSplineSet
Validated: 1
EndChar

StartChar: F
Encoding: 70 70 41
Width: 683
Flags: W
LayerCount: 2
Fore
SplineSet
85 597 m 1,0,-1
 597 597 l 1,1,-1
 597 512 l 1,2,-1
 256 512 l 1,3,-1
 256 341 l 1,4,-1
 512 341 l 1,5,-1
 512 256 l 1,6,-1
 256 256 l 1,7,-1
 256 0 l 1,8,-1
 85 0 l 1,9,-1
 85 597 l 1,0,-1
EndSplineSet
Validated: 1
EndChar

StartChar: G
Encoding: 71 71 42
Width: 683
Flags: W
LayerCount: 2
Fore
SplineSet
512 597 m 1,0,-1
 512 512 l 1,1,-1
 597 512 l 1,2,-1
 597 427 l 1,3,-1
 427 427 l 1,4,-1
 427 512 l 1,5,-1
 256 512 l 1,6,-1
 256 85 l 1,7,-1
 427 85 l 1,8,-1
 427 256 l 1,9,-1
 341 256 l 1,10,-1
 341 341 l 1,11,-1
 597 341 l 1,12,-1
 597 85 l 1,13,-1
 512 85 l 1,14,-1
 512 0 l 1,15,-1
 171 0 l 1,16,-1
 171 85 l 1,17,-1
 85 85 l 1,18,-1
 85 512 l 1,19,-1
 171 512 l 1,20,-1
 171 597 l 1,21,-1
 512 597 l 1,0,-1
EndSplineSet
Validated: 1
EndChar

StartChar: H
Encoding: 72 72 43
Width: 683
Flags: W
LayerCount: 2
Fore
SplineSet
427 597 m 1,0,-1
 597 597 l 1,1,-1
 597 0 l 1,2,-1
 427 0 l 1,3,-1
 427 256 l 1,4,-1
 256 256 l 1,5,-1
 256 0 l 1,6,-1
 85 0 l 1,7,-1
 85 597 l 1,8,-1
 256 597 l 1,9,-1
 256 341 l 1,10,-1
 427 341 l 1,11,-1
 427 597 l 1,0,-1
EndSplineSet
Validated: 1
EndChar

StartChar: I
Encoding: 73 73 44
Width: 683
Flags: W
LayerCount: 2
Fore
SplineSet
247 597 m 1,0,-1
 418 597 l 1,1,-1
 418 0 l 1,2,-1
 247 0 l 1,3,-1
 247 597 l 1,0,-1
EndSplineSet
Validated: 1
EndChar

StartChar: J
Encoding: 74 74 45
Width: 683
Flags: W
LayerCount: 2
Fore
SplineSet
427 597 m 1,0,-1
 597 597 l 1,1,-1
 597 85 l 1,2,-1
 512 85 l 1,3,-1
 512 0 l 1,4,-1
 171 0 l 1,5,-1
 171 85 l 1,6,-1
 85 85 l 1,7,-1
 85 256 l 1,8,-1
 256 256 l 1,9,-1
 256 85 l 1,10,-1
 427 85 l 1,11,-1
 427 597 l 1,0,-1
EndSplineSet
Validated: 1
EndChar

StartChar: K
Encoding: 75 75 46
Width: 683
Flags: W
LayerCount: 2
Fore
SplineSet
427 597 m 1,0,-1
 597 597 l 1,1,-1
 597 512 l 1,2,-1
 512 512 l 1,3,-1
 512 427 l 1,4,-1
 427 427 l 1,5,-1
 427 341 l 1,6,-1
 341 341 l 1,7,-1
 341 256 l 1,8,-1
 427 256 l 1,9,-1
 427 171 l 1,10,-1
 512 171 l 1,11,-1
 512 85 l 1,12,-1
 597 85 l 1,13,-1
 597 0 l 1,14,-1
 427 0 l 1,15,-1
 427 85 l 1,16,-1
 341 85 l 1,17,-1
 341 171 l 1,18,-1
 256 171 l 1,19,-1
 256 0 l 1,20,-1
 85 0 l 1,21,-1
 85 597 l 1,22,-1
 256 597 l 1,23,-1
 256 427 l 1,24,-1
 341 427 l 1,25,-1
 341 512 l 1,26,-1
 427 512 l 1,27,-1
 427 597 l 1,0,-1
EndSplineSet
Validated: 1
EndChar

StartChar: L
Encoding: 76 76 47
Width: 683
Flags: W
LayerCount: 2
Fore
SplineSet
597 85 m 1,0,-1
 597 0 l 1,1,-1
 85 0 l 1,2,-1
 85 597 l 1,3,-1
 256 597 l 1,4,-1
 256 85 l 1,5,-1
 597 85 l 1,0,-1
EndSplineSet
Validated: 1
EndChar

StartChar: M
Encoding: 77 77 48
Width: 683
Flags: W
LayerCount: 2
Fore
SplineSet
469 597 m 1,0,-1
 640 597 l 1,1,-1
 640 0 l 1,2,-1
 469 0 l 1,3,-1
 469 341 l 1,4,-1
 384 341 l 1,5,-1
 384 256 l 1,6,-1
 298 256 l 1,7,-1
 298 341 l 1,8,-1
 213 341 l 1,9,-1
 213 0 l 1,10,-1
 42 0 l 1,11,-1
 42 597 l 1,12,-1
 213 597 l 1,13,-1
 213 512 l 1,14,-1
 298 512 l 1,15,-1
 298 427 l 1,16,-1
 384 427 l 1,17,-1
 384 512 l 1,18,-1
 469 512 l 1,19,-1
 469 597 l 1,0,-1
EndSplineSet
Validated: 1
EndChar

StartChar: N
Encoding: 78 78 49
Width: 683
Flags: W
LayerCount: 2
Fore
SplineSet
427 597 m 1,0,-1
 597 597 l 1,1,-1
 597 0 l 1,2,-1
 427 0 l 1,3,-1
 427 256 l 1,4,-1
 341 256 l 1,5,-1
 341 341 l 1,6,-1
 256 341 l 1,7,-1
 256 0 l 1,8,-1
 85 0 l 1,9,-1
 85 597 l 1,10,-1
 256 597 l 1,11,-1
 256 512 l 1,12,-1
 341 512 l 1,13,-1
 341 427 l 1,14,-1
 427 427 l 1,15,-1
 427 597 l 1,0,-1
EndSplineSet
Validated: 1
EndChar

StartChar: O
Encoding: 79 79 50
Width: 683
Flags: W
LayerCount: 2
Fore
SplineSet
512 597 m 1,0,-1
 512 512 l 1,1,-1
 597 512 l 1,2,-1
 597 85 l 1,3,-1
 512 85 l 1,4,-1
 512 0 l 1,5,-1
 171 0 l 1,6,-1
 171 85 l 1,7,-1
 85 85 l 1,8,-1
 85 512 l 1,9,-1
 171 512 l 1,10,-1
 171 597 l 1,11,-1
 512 597 l 1,0,-1
427 85 m 1,12,-1
 427 512 l 1,13,-1
 256 512 l 1,14,-1
 256 85 l 1,15,-1
 427 85 l 1,12,-1
EndSplineSet
Validated: 1
EndChar

StartChar: P
Encoding: 80 80 51
Width: 683
Flags: W
LayerCount: 2
Fore
SplineSet
512 597 m 1,0,-1
 512 512 l 1,1,-1
 597 512 l 1,2,-1
 597 341 l 1,3,-1
 512 341 l 1,4,-1
 512 256 l 1,5,-1
 256 256 l 1,6,-1
 256 0 l 1,7,-1
 85 0 l 1,8,-1
 85 597 l 1,9,-1
 512 597 l 1,0,-1
427 341 m 1,10,-1
 427 512 l 1,11,-1
 256 512 l 1,12,-1
 256 341 l 1,13,-1
 427 341 l 1,10,-1
EndSplineSet
Validated: 1
EndChar

StartChar: Q
Encoding: 81 81 52
Width: 683
Flags: W
LayerCount: 2
Fore
SplineSet
512 597 m 1,0,-1
 512 512 l 1,1,-1
 597 512 l 1,2,-1
 597 85 l 1,3,-1
 512 85 l 1,4,-1
 512 0 l 1,5,-1
 597 0 l 1,6,-1
 597 -85 l 1,7,-1
 427 -85 l 1,8,-1
 427 0 l 1,9,-1
 171 0 l 1,10,-1
 171 85 l 1,11,-1
 85 85 l 1,12,-1
 85 512 l 1,13,-1
 171 512 l 1,14,-1
 171 597 l 1,15,-1
 512 597 l 1,0,-1
427 171 m 1,16,-1
 427 512 l 1,17,-1
 256 512 l 1,18,-1
 256 85 l 1,19,-1
 341 85 l 1,20,-1
 341 171 l 1,21,-1
 427 171 l 1,16,-1
EndSplineSet
Validated: 1
EndChar

StartChar: R
Encoding: 82 82 53
Width: 683
Flags: W
LayerCount: 2
Fore
SplineSet
512 597 m 1,0,-1
 512 512 l 1,1,-1
 597 512 l 1,2,-1
 597 341 l 1,3,-1
 512 341 l 1,4,-1
 512 256 l 1,5,-1
 597 256 l 1,6,-1
 597 0 l 1,7,-1
 427 0 l 1,8,-1
 427 256 l 1,9,-1
 256 256 l 1,10,-1
 256 0 l 1,11,-1
 85 0 l 1,12,-1
 85 597 l 1,13,-1
 512 597 l 1,0,-1
427 341 m 1,14,-1
 427 512 l 1,15,-1
 256 512 l 1,16,-1
 256 341 l 1,17,-1
 427 341 l 1,14,-1
EndSplineSet
Validated: 1
EndChar

StartChar: S
Encoding: 83 83 54
Width: 683
Flags: W
LayerCount: 2
Fore
SplineSet
512 597 m 1,0,-1
 512 512 l 1,1,-1
 597 512 l 1,2,-1
 597 427 l 1,3,-1
 427 427 l 1,4,-1
 427 512 l 1,5,-1
 256 512 l 1,6,-1
 256 341 l 1,7,-1
 512 341 l 1,8,-1
 512 256 l 1,9,-1
 597 256 l 1,10,-1
 597 85 l 1,11,-1
 512 85 l 1,12,-1
 512 0 l 1,13,-1
 171 0 l 1,14,-1
 171 85 l 1,15,-1
 85 85 l 1,16,-1
 85 171 l 1,17,-1
 256 171 l 1,18,-1
 256 85 l 1,19,-1
 427 85 l 1,20,-1
 427 256 l 1,21,-1
 171 256 l 1,22,-1
 171 341 l 1,23,-1
 85 341 l 1,24,-1
 85 512 l 1,25,-1
 171 512 l 1,26,-1
 171 597 l 1,27,-1
 512 597 l 1,0,-1
EndSplineSet
Validated: 1
EndChar

StartChar: T
Encoding: 84 84 55
Width: 683
Flags: W
LayerCount: 2
Fore
SplineSet
85 597 m 1,0,-1
 597 597 l 1,1,-1
 597 512 l 1,2,-1
 427 512 l 1,3,-1
 427 0 l 1,4,-1
 256 0 l 1,5,-1
 256 512 l 1,6,-1
 85 512 l 1,7,-1
 85 597 l 1,0,-1
EndSplineSet
Validated: 1
EndChar

StartChar: U
Encoding: 85 85 56
Width: 683
Flags: W
LayerCount: 2
Fore
SplineSet
427 597 m 1,0,-1
 597 597 l 1,1,-1
 597 85 l 1,2,-1
 512 85 l 1,3,-1
 512 0 l 1,4,-1
 171 0 l 1,5,-1
 171 85 l 1,6,-1
 85 85 l 1,7,-1
 85 597 l 1,8,-1
 256 597 l 1,9,-1
 256 85 l 1,10,-1
 427 85 l 1,11,-1
 427 597 l 1,0,-1
EndSplineSet
Validated: 1
EndChar

StartChar: V
Encoding: 86 86 57
Width: 683
Flags: W
LayerCount: 2
Fore
SplineSet
427 597 m 1,0,-1
 597 597 l 1,1,-1
 597 171 l 1,2,-1
 512 171 l 1,3,-1
 512 85 l 1,4,-1
 427 85 l 1,5,-1
 427 0 l 1,6,-1
 256 0 l 1,7,-1
 256 85 l 1,8,-1
 171 85 l 1,9,-1
 171 171 l 1,10,-1
 85 171 l 1,11,-1
 85 597 l 1,12,-1
 256 597 l 1,13,-1
 256 171 l 1,14,-1
 427 171 l 1,15,-1
 427 597 l 1,0,-1
EndSplineSet
Validated: 1
EndChar

StartChar: W
Encoding: 87 87 58
Width: 683
Flags: W
LayerCount: 2
Fore
SplineSet
213 0 m 1,0,-1
 42 0 l 1,1,-1
 42 597 l 1,2,-1
 213 597 l 1,3,-1
 213 256 l 1,4,-1
 298 256 l 1,5,-1
 298 341 l 1,6,-1
 384 341 l 1,7,-1
 384 256 l 1,8,-1
 469 256 l 1,9,-1
 469 597 l 1,10,-1
 640 597 l 1,11,-1
 640 0 l 1,12,-1
 469 0 l 1,13,-1
 469 85 l 1,14,-1
 384 85 l 1,15,-1
 384 171 l 1,16,-1
 298 171 l 1,17,-1
 298 85 l 1,18,-1
 213 85 l 1,19,-1
 213 0 l 1,0,-1
EndSplineSet
Validated: 1
EndChar

StartChar: X
Encoding: 88 88 59
Width: 683
Flags: W
LayerCount: 2
Fore
SplineSet
427 597 m 1,0,-1
 597 597 l 1,1,-1
 597 427 l 1,2,-1
 512 427 l 1,3,-1
 512 341 l 1,4,-1
 427 341 l 1,5,-1
 427 256 l 1,6,-1
 512 256 l 1,7,-1
 512 171 l 1,8,-1
 597 171 l 1,9,-1
 597 0 l 1,10,-1
 427 0 l 1,11,-1
 427 171 l 1,12,-1
 256 171 l 1,13,-1
 256 0 l 1,14,-1
 85 0 l 1,15,-1
 85 171 l 1,16,-1
 171 171 l 1,17,-1
 171 256 l 1,18,-1
 256 256 l 1,19,-1
 256 341 l 1,20,-1
 171 341 l 1,21,-1
 171 427 l 1,22,-1
 85 427 l 1,23,-1
 85 597 l 1,24,-1
 256 597 l 1,25,-1
 256 427 l 1,26,-1
 427 427 l 1,27,-1
 427 597 l 1,0,-1
EndSplineSet
Validated: 1
EndChar

StartChar: Y
Encoding: 89 89 60
Width: 683
Flags: W
LayerCount: 2
Fore
SplineSet
427 597 m 1,0,-1
 597 597 l 1,1,-1
 597 341 l 1,2,-1
 512 341 l 1,3,-1
 512 256 l 1,4,-1
 427 256 l 1,5,-1
 427 0 l 1,6,-1
 256 0 l 1,7,-1
 256 256 l 1,8,-1
 171 256 l 1,9,-1
 171 341 l 1,10,-1
 85 341 l 1,11,-1
 85 597 l 1,12,-1
 256 597 l 1,13,-1
 256 341 l 1,14,-1
 427 341 l 1,15,-1
 427 597 l 1,0,-1
EndSplineSet
Validated: 1
EndChar

StartChar: Z
Encoding: 90 90 61
Width: 683
Flags: W
LayerCount: 2
Fore
SplineSet
85 597 m 1,0,-1
 597 597 l 1,1,-1
 597 427 l 1,2,-1
 512 427 l 1,3,-1
 512 341 l 1,4,-1
 427 341 l 1,5,-1
 427 256 l 1,6,-1
 341 256 l 1,7,-1
 341 171 l 1,8,-1
 256 171 l 1,9,-1
 256 85 l 1,10,-1
 597 85 l 1,11,-1
 597 0 l 1,12,-1
 85 0 l 1,13,-1
 85 171 l 1,14,-1
 171 171 l 1,15,-1
 171 256 l 1,16,-1
 256 256 l 1,17,-1
 256 341 l 1,18,-1
 341 341 l 1,19,-1
 341 427 l 1,20,-1
 427 427 l 1,21,-1
 427 512 l 1,22,-1
 85 512 l 1,23,-1
 85 597 l 1,0,-1
EndSplineSet
Validated: 1
EndChar

StartChar: bracketleft
Encoding: 91 91 62
Width: 683
Flags: W
LayerCount: 2
Fore
SplineSet
391 597 m 1,0,-1
 391 0 l 1,1,-1
 476 0 l 1,2,-1
 476 -85 l 1,3,-1
 220 -85 l 1,4,-1
 220 683 l 1,5,-1
 476 683 l 1,6,-1
 476 597 l 1,7,-1
 391 597 l 1,0,-1
EndSplineSet
Validated: 1
EndChar

StartChar: backslash
Encoding: 92 92 63
Width: 683
Flags: W
LayerCount: 2
Fore
SplineSet
297 682 m 1,0,-1
 297 511 l 1,1,-1
 382 511 l 1,2,-1
 382 341 l 1,3,-1
 467 341 l 1,4,-1
 467 170 l 1,5,-1
 553 170 l 1,6,-1
 553 0 l 1,7,-1
 467 0 l 1,8,-1
 467 85 l 1,9,-1
 382 85 l 1,10,-1
 382 256 l 1,11,-1
 297 256 l 1,12,-1
 297 426 l 1,13,-1
 212 426 l 1,14,-1
 212 597 l 1,15,-1
 126 597 l 1,16,-1
 126 682 l 1,17,-1
 297 682 l 1,0,-1
EndSplineSet
Validated: 1
EndChar

StartChar: bracketright
Encoding: 93 93 64
Width: 683
Flags: W
LayerCount: 2
Fore
SplineSet
297 597 m 1,0,-1
 211 597 l 1,1,-1
 211 683 l 1,2,-1
 467 683 l 1,3,-1
 467 -85 l 1,4,-1
 211 -85 l 1,5,-1
 211 0 l 1,6,-1
 297 0 l 1,7,-1
 297 597 l 1,0,-1
EndSplineSet
Validated: 1
EndChar

StartChar: asciicircum
Encoding: 94 94 65
Width: 683
Flags: W
LayerCount: 2
Fore
SplineSet
166 512 m 1,0,-1
 166 597 l 1,1,-1
 252 597 l 1,2,-1
 252 512 l 1,3,-1
 166 512 l 1,0,-1
422 597 m 1,4,-1
 508 597 l 1,5,-1
 508 512 l 1,6,-1
 422 512 l 1,7,-1
 422 597 l 1,4,-1
252 683 m 1,8,-1
 422 683 l 1,9,-1
 422 597 l 1,10,-1
 252 597 l 1,11,-1
 252 683 l 1,8,-1
EndSplineSet
Validated: 5
EndChar

StartChar: underscore
Encoding: 95 95 66
Width: 683
Flags: W
LayerCount: 2
Fore
SplineSet
547 0 m 1,0,-1
 120 0 l 1,1,-1
 120 85 l 1,2,-1
 547 85 l 1,3,-1
 547 0 l 1,0,-1
EndSplineSet
Validated: 1
EndChar

StartChar: grave
Encoding: 96 96 67
Width: 683
Flags: W
LayerCount: 2
Fore
SplineSet
291 597 m 1,0,-1
 461 597 l 1,1,-1
 461 512 l 1,2,-1
 291 512 l 1,3,-1
 291 597 l 1,0,-1
205 683 m 1,4,-1
 291 683 l 1,5,-1
 291 597 l 1,6,-1
 205 597 l 1,7,-1
 205 683 l 1,4,-1
EndSplineSet
Validated: 5
EndChar

StartChar: a
Encoding: 97 97 68
Width: 683
Flags: W
LayerCount: 2
Fore
SplineSet
171 427 m 1,0,-1
 597 427 l 1,1,-1
 597 0 l 1,2,-1
 427 0 l 1,3,-1
 427 85 l 1,4,-1
 341 85 l 1,5,-1
 341 171 l 1,6,-1
 427 171 l 1,7,-1
 427 341 l 1,8,-1
 256 341 l 1,9,-1
 256 85 l 1,10,-1
 341 85 l 1,11,-1
 341 0 l 1,12,-1
 171 0 l 1,13,-1
 171 85 l 1,14,-1
 85 85 l 1,15,-1
 85 341 l 1,16,-1
 171 341 l 1,17,-1
 171 427 l 1,0,-1
EndSplineSet
Validated: 5
EndChar

StartChar: b
Encoding: 98 98 69
Width: 683
Flags: W
LayerCount: 2
Fore
SplineSet
512 427 m 1,0,-1
 512 341 l 1,1,-1
 597 341 l 1,2,-1
 597 85 l 1,3,-1
 512 85 l 1,4,-1
 512 0 l 1,5,-1
 85 0 l 1,6,-1
 85 597 l 1,7,-1
 256 597 l 1,8,-1
 256 427 l 1,9,-1
 512 427 l 1,0,-1
427 85 m 1,10,-1
 427 341 l 1,11,-1
 256 341 l 1,12,-1
 256 85 l 1,13,-1
 427 85 l 1,10,-1
EndSplineSet
Validated: 1
EndChar

StartChar: c
Encoding: 99 99 70
Width: 683
Flags: W
LayerCount: 2
Fore
SplineSet
512 427 m 1,0,-1
 512 341 l 1,1,-1
 597 341 l 1,2,-1
 597 256 l 1,3,-1
 427 256 l 1,4,-1
 427 341 l 1,5,-1
 256 341 l 1,6,-1
 256 85 l 1,7,-1
 597 85 l 1,8,-1
 597 0 l 1,9,-1
 171 0 l 1,10,-1
 171 85 l 1,11,-1
 85 85 l 1,12,-1
 85 341 l 1,13,-1
 171 341 l 1,14,-1
 171 427 l 1,15,-1
 512 427 l 1,0,-1
EndSplineSet
Validated: 1
EndChar

StartChar: d
Encoding: 100 100 71
Width: 683
Flags: W
LayerCount: 2
Fore
SplineSet
427 597 m 1,0,-1
 597 597 l 1,1,-1
 597 0 l 1,2,-1
 171 0 l 1,3,-1
 171 85 l 1,4,-1
 85 85 l 1,5,-1
 85 341 l 1,6,-1
 171 341 l 1,7,-1
 171 427 l 1,8,-1
 427 427 l 1,9,-1
 427 597 l 1,0,-1
427 85 m 1,10,-1
 427 341 l 1,11,-1
 256 341 l 1,12,-1
 256 85 l 1,13,-1
 427 85 l 1,10,-1
EndSplineSet
Validated: 1
EndChar

StartChar: e
Encoding: 101 101 72
Width: 683
Flags: W
LayerCount: 2
Fore
SplineSet
512 427 m 1,0,-1
 512 341 l 1,1,-1
 597 341 l 1,2,-1
 597 171 l 1,3,-1
 256 171 l 1,4,-1
 256 85 l 1,5,-1
 597 85 l 1,6,-1
 597 0 l 1,7,-1
 171 0 l 1,8,-1
 171 85 l 1,9,-1
 85 85 l 1,10,-1
 85 341 l 1,11,-1
 171 341 l 1,12,-1
 171 427 l 1,13,-1
 512 427 l 1,0,-1
427 256 m 1,14,-1
 427 341 l 1,15,-1
 256 341 l 1,16,-1
 256 256 l 1,17,-1
 427 256 l 1,14,-1
EndSplineSet
Validated: 1
EndChar

StartChar: f
Encoding: 102 102 73
Width: 683
Flags: W
LayerCount: 2
Fore
SplineSet
303 597 m 1,0,-1
 559 597 l 1,1,-1
 559 512 l 1,2,-1
 388 512 l 1,3,-1
 388 427 l 1,4,-1
 559 427 l 1,5,-1
 559 341 l 1,6,-1
 388 341 l 1,7,-1
 388 0 l 1,8,-1
 218 0 l 1,9,-1
 218 341 l 1,10,-1
 132 341 l 1,11,-1
 132 427 l 1,12,-1
 218 427 l 1,13,-1
 218 512 l 1,14,-1
 303 512 l 1,15,-1
 303 597 l 1,0,-1
EndSplineSet
Validated: 1
EndChar

StartChar: g
Encoding: 103 103 74
Width: 683
Flags: W
LayerCount: 2
Fore
SplineSet
171 427 m 1,0,-1
 597 427 l 1,1,-1
 597 -85 l 1,2,-1
 512 -85 l 1,3,-1
 512 -171 l 1,4,-1
 171 -171 l 1,5,-1
 171 -85 l 1,6,-1
 427 -85 l 1,7,-1
 427 0 l 1,8,-1
 171 0 l 1,9,-1
 171 85 l 1,10,-1
 85 85 l 1,11,-1
 85 341 l 1,12,-1
 171 341 l 1,13,-1
 171 427 l 1,0,-1
427 85 m 1,14,-1
 427 341 l 1,15,-1
 256 341 l 1,16,-1
 256 85 l 1,17,-1
 427 85 l 1,14,-1
EndSplineSet
Validated: 1
EndChar

StartChar: h
Encoding: 104 104 75
Width: 683
Flags: W
LayerCount: 2
Fore
SplineSet
512 427 m 1,0,-1
 512 341 l 1,1,-1
 597 341 l 1,2,-1
 597 0 l 1,3,-1
 427 0 l 1,4,-1
 427 341 l 1,5,-1
 256 341 l 1,6,-1
 256 0 l 1,7,-1
 85 0 l 1,8,-1
 85 597 l 1,9,-1
 256 597 l 1,10,-1
 256 427 l 1,11,-1
 512 427 l 1,0,-1
EndSplineSet
Validated: 1
EndChar

StartChar: i
Encoding: 105 105 76
Width: 683
Flags: W
LayerCount: 2
Fore
SplineSet
267 597 m 1,0,-1
 438 597 l 1,1,-1
 438 512 l 1,2,-1
 267 512 l 1,3,-1
 267 597 l 1,0,-1
267 427 m 1,4,-1
 438 427 l 1,5,-1
 438 0 l 1,6,-1
 267 0 l 1,7,-1
 267 427 l 1,4,-1
EndSplineSet
Validated: 1
EndChar

StartChar: j
Encoding: 106 106 77
Width: 683
Flags: W
LayerCount: 2
Fore
SplineSet
377 597 m 1,0,-1
 548 597 l 1,1,-1
 548 512 l 1,2,-1
 377 512 l 1,3,-1
 377 597 l 1,0,-1
377 427 m 1,4,-1
 548 427 l 1,5,-1
 548 0 l 1,6,-1
 462 0 l 1,7,-1
 462 -85 l 1,8,-1
 121 -85 l 1,9,-1
 121 0 l 1,10,-1
 377 0 l 1,11,-1
 377 427 l 1,4,-1
EndSplineSet
Validated: 1
EndChar

StartChar: k
Encoding: 107 107 78
Width: 683
Flags: W
LayerCount: 2
Fore
SplineSet
426 427 m 1,0,-1
 597 427 l 1,1,-1
 597 341 l 1,2,-1
 512 341 l 1,3,-1
 512 256 l 1,4,-1
 426 256 l 1,5,-1
 426 171 l 1,6,-1
 512 171 l 1,7,-1
 512 85 l 1,8,-1
 597 85 l 1,9,-1
 597 0 l 1,10,-1
 426 0 l 1,11,-1
 426 85 l 1,12,-1
 341 85 l 1,13,-1
 341 171 l 1,14,-1
 256 171 l 1,15,-1
 256 0 l 1,16,-1
 85 0 l 1,17,-1
 85 597 l 1,18,-1
 256 597 l 1,19,-1
 256 256 l 1,20,-1
 341 256 l 1,21,-1
 341 341 l 1,22,-1
 426 341 l 1,23,-1
 426 427 l 1,0,-1
EndSplineSet
Validated: 1
EndChar

StartChar: l
Encoding: 108 108 79
Width: 683
Flags: W
LayerCount: 2
Fore
SplineSet
200 597 m 1,0,-1
 456 597 l 1,1,-1
 456 0 l 1,2,-1
 285 0 l 1,3,-1
 285 512 l 1,4,-1
 200 512 l 1,5,-1
 200 597 l 1,0,-1
EndSplineSet
Validated: 1
EndChar

StartChar: m
Encoding: 109 109 80
Width: 683
Flags: W
LayerCount: 2
Fore
SplineSet
597 427 m 1,0,-1
 597 341 l 1,1,-1
 682 341 l 1,2,-1
 682 0 l 1,3,-1
 511 0 l 1,4,-1
 511 341 l 1,5,-1
 426 341 l 1,6,-1
 426 0 l 1,7,-1
 255 0 l 1,8,-1
 255 341 l 1,9,-1
 170 341 l 1,10,-1
 170 0 l 1,11,-1
 -1 0 l 1,12,-1
 -1 427 l 1,13,-1
 597 427 l 1,0,-1
EndSplineSet
Validated: 1
EndChar

StartChar: n
Encoding: 110 110 81
Width: 683
Flags: W
LayerCount: 2
Fore
SplineSet
256 427 m 1,0,-1
 256 341 l 1,1,-1
 341 341 l 1,2,-1
 341 256 l 1,3,-1
 256 256 l 1,4,-1
 256 0 l 1,5,-1
 85 0 l 1,6,-1
 85 427 l 1,7,-1
 256 427 l 1,0,-1
512 427 m 1,8,-1
 512 341 l 1,9,-1
 597 341 l 1,10,-1
 597 0 l 1,11,-1
 427 0 l 1,12,-1
 427 341 l 1,13,-1
 341 341 l 1,14,-1
 341 427 l 1,15,-1
 512 427 l 1,8,-1
EndSplineSet
Validated: 5
EndChar

StartChar: o
Encoding: 111 111 82
Width: 683
Flags: W
LayerCount: 2
Fore
SplineSet
512 427 m 1,0,-1
 512 341 l 1,1,-1
 597 341 l 1,2,-1
 597 85 l 1,3,-1
 512 85 l 1,4,-1
 512 0 l 1,5,-1
 171 0 l 1,6,-1
 171 85 l 1,7,-1
 85 85 l 1,8,-1
 85 341 l 1,9,-1
 171 341 l 1,10,-1
 171 427 l 1,11,-1
 512 427 l 1,0,-1
427 85 m 1,12,-1
 427 341 l 1,13,-1
 256 341 l 1,14,-1
 256 85 l 1,15,-1
 427 85 l 1,12,-1
EndSplineSet
Validated: 1
EndChar

StartChar: p
Encoding: 112 112 83
Width: 683
Flags: W
LayerCount: 2
Fore
SplineSet
512 427 m 1,0,-1
 512 341 l 1,1,-1
 597 341 l 1,2,-1
 597 85 l 1,3,-1
 512 85 l 1,4,-1
 512 0 l 1,5,-1
 256 0 l 1,6,-1
 256 -171 l 1,7,-1
 85 -171 l 1,8,-1
 85 427 l 1,9,-1
 512 427 l 1,0,-1
427 85 m 1,10,-1
 427 341 l 1,11,-1
 256 341 l 1,12,-1
 256 85 l 1,13,-1
 427 85 l 1,10,-1
EndSplineSet
Validated: 1
EndChar

StartChar: q
Encoding: 113 113 84
Width: 683
Flags: W
LayerCount: 2
Fore
SplineSet
171 427 m 1,0,-1
 597 427 l 1,1,-1
 597 -171 l 1,2,-1
 427 -171 l 1,3,-1
 427 0 l 1,4,-1
 171 0 l 1,5,-1
 171 85 l 1,6,-1
 85 85 l 1,7,-1
 85 341 l 1,8,-1
 171 341 l 1,9,-1
 171 427 l 1,0,-1
427 85 m 1,10,-1
 427 341 l 1,11,-1
 256 341 l 1,12,-1
 256 85 l 1,13,-1
 427 85 l 1,10,-1
EndSplineSet
Validated: 1
EndChar

StartChar: r
Encoding: 114 114 85
Width: 683
Flags: W
LayerCount: 2
Fore
SplineSet
256 427 m 1,0,-1
 256 341 l 1,1,-1
 341 341 l 1,2,-1
 341 256 l 1,3,-1
 256 256 l 1,4,-1
 256 0 l 1,5,-1
 85 0 l 1,6,-1
 85 427 l 1,7,-1
 256 427 l 1,0,-1
512 427 m 1,8,-1
 512 341 l 1,9,-1
 597 341 l 1,10,-1
 597 256 l 1,11,-1
 427 256 l 1,12,-1
 427 341 l 1,13,-1
 341 341 l 1,14,-1
 341 427 l 1,15,-1
 512 427 l 1,8,-1
EndSplineSet
Validated: 5
EndChar

StartChar: s
Encoding: 115 115 86
Width: 683
Flags: W
LayerCount: 2
Fore
SplineSet
171 427 m 1,0,-1
 597 427 l 1,1,-1
 597 341 l 1,2,-1
 256 341 l 1,3,-1
 256 256 l 1,4,-1
 512 256 l 1,5,-1
 512 171 l 1,6,-1
 597 171 l 1,7,-1
 597 85 l 1,8,-1
 512 85 l 1,9,-1
 512 0 l 1,10,-1
 85 0 l 1,11,-1
 85 85 l 1,12,-1
 427 85 l 1,13,-1
 427 171 l 1,14,-1
 171 171 l 1,15,-1
 171 256 l 1,16,-1
 85 256 l 1,17,-1
 85 341 l 1,18,-1
 171 341 l 1,19,-1
 171 427 l 1,0,-1
EndSplineSet
Validated: 1
EndChar

StartChar: t
Encoding: 116 116 87
Width: 683
Flags: W
LayerCount: 2
Fore
SplineSet
378 427 m 1,0,-1
 549 427 l 1,1,-1
 549 341 l 1,2,-1
 378 341 l 1,3,-1
 378 85 l 1,4,-1
 549 85 l 1,5,-1
 549 0 l 1,6,-1
 293 0 l 1,7,-1
 293 85 l 1,8,-1
 208 85 l 1,9,-1
 208 341 l 1,10,-1
 122 341 l 1,11,-1
 122 427 l 1,12,-1
 208 427 l 1,13,-1
 208 597 l 1,14,-1
 378 597 l 1,15,-1
 378 427 l 1,0,-1
EndSplineSet
Validated: 1
EndChar

StartChar: u
Encoding: 117 117 88
Width: 683
Flags: W
LayerCount: 2
Fore
SplineSet
427 427 m 1,0,-1
 597 427 l 1,1,-1
 597 0 l 1,2,-1
 427 0 l 1,3,-1
 427 85 l 1,4,-1
 341 85 l 1,5,-1
 341 171 l 1,6,-1
 427 171 l 1,7,-1
 427 427 l 1,0,-1
256 427 m 1,8,-1
 256 85 l 1,9,-1
 341 85 l 1,10,-1
 341 0 l 1,11,-1
 171 0 l 1,12,-1
 171 85 l 1,13,-1
 85 85 l 1,14,-1
 85 427 l 1,15,-1
 256 427 l 1,8,-1
EndSplineSet
Validated: 5
EndChar

StartChar: v
Encoding: 118 118 89
Width: 683
Flags: W
LayerCount: 2
Fore
SplineSet
427 427 m 1,0,-1
 597 427 l 1,1,-1
 597 171 l 1,2,-1
 512 171 l 1,3,-1
 512 85 l 1,4,-1
 427 85 l 1,5,-1
 427 0 l 1,6,-1
 256 0 l 1,7,-1
 256 85 l 1,8,-1
 171 85 l 1,9,-1
 171 171 l 1,10,-1
 85 171 l 1,11,-1
 85 427 l 1,12,-1
 256 427 l 1,13,-1
 256 171 l 1,14,-1
 427 171 l 1,15,-1
 427 427 l 1,0,-1
EndSplineSet
Validated: 1
EndChar

StartChar: w
Encoding: 119 119 90
Width: 683
Flags: W
LayerCount: 2
Fore
SplineSet
512 427 m 1,0,-1
 683 427 l 1,1,-1
 683 85 l 1,2,-1
 598 85 l 1,3,-1
 598 0 l 1,4,-1
 86 0 l 1,5,-1
 86 85 l 1,6,-1
 0 85 l 1,7,-1
 0 427 l 1,8,-1
 171 427 l 1,9,-1
 171 85 l 1,10,-1
 256 85 l 1,11,-1
 256 427 l 1,12,-1
 427 427 l 1,13,-1
 427 85 l 1,14,-1
 512 85 l 1,15,-1
 512 427 l 1,0,-1
EndSplineSet
EndChar

StartChar: x
Encoding: 120 120 91
Width: 683
Flags: W
LayerCount: 2
Fore
SplineSet
427 427 m 1,0,-1
 597 427 l 1,1,-1
 597 341 l 1,2,-1
 512 341 l 1,3,-1
 512 256 l 1,4,-1
 427 256 l 1,5,-1
 427 171 l 1,6,-1
 512 171 l 1,7,-1
 512 85 l 1,8,-1
 597 85 l 1,9,-1
 597 0 l 1,10,-1
 427 0 l 1,11,-1
 427 85 l 1,12,-1
 256 85 l 1,13,-1
 256 0 l 1,14,-1
 85 0 l 1,15,-1
 85 85 l 1,16,-1
 171 85 l 1,17,-1
 171 171 l 1,18,-1
 256 171 l 1,19,-1
 256 256 l 1,20,-1
 171 256 l 1,21,-1
 171 341 l 1,22,-1
 85 341 l 1,23,-1
 85 427 l 1,24,-1
 256 427 l 1,25,-1
 256 341 l 1,26,-1
 427 341 l 1,27,-1
 427 427 l 1,0,-1
EndSplineSet
Validated: 1
EndChar

StartChar: y
Encoding: 121 121 92
Width: 683
Flags: W
LayerCount: 2
Fore
SplineSet
427 427 m 1,0,-1
 597 427 l 1,1,-1
 597 -85 l 1,2,-1
 512 -85 l 1,3,-1
 512 -171 l 1,4,-1
 171 -171 l 1,5,-1
 171 -85 l 1,6,-1
 427 -85 l 1,7,-1
 427 0 l 1,8,-1
 171 0 l 1,9,-1
 171 85 l 1,10,-1
 85 85 l 1,11,-1
 85 427 l 1,12,-1
 256 427 l 1,13,-1
 256 85 l 1,14,-1
 427 85 l 1,15,-1
 427 427 l 1,0,-1
EndSplineSet
Validated: 1
EndChar

StartChar: z
Encoding: 122 122 93
Width: 683
Flags: W
LayerCount: 2
Fore
SplineSet
85 427 m 1,0,-1
 597 427 l 1,1,-1
 597 341 l 1,2,-1
 512 341 l 1,3,-1
 512 256 l 1,4,-1
 427 256 l 1,5,-1
 427 171 l 1,6,-1
 341 171 l 1,7,-1
 341 85 l 1,8,-1
 597 85 l 1,9,-1
 597 0 l 1,10,-1
 85 0 l 1,11,-1
 85 85 l 1,12,-1
 171 85 l 1,13,-1
 171 171 l 1,14,-1
 256 171 l 1,15,-1
 256 256 l 1,16,-1
 341 256 l 1,17,-1
 341 341 l 1,18,-1
 85 341 l 1,19,-1
 85 427 l 1,0,-1
EndSplineSet
Validated: 1
EndChar

StartChar: braceleft
Encoding: 123 123 94
Width: 683
Flags: W
LayerCount: 2
Fore
SplineSet
251 256 m 1,0,-1
 165 256 l 1,1,-1
 165 341 l 1,2,-1
 251 341 l 1,3,-1
 251 597 l 1,4,-1
 336 597 l 1,5,-1
 336 683 l 1,6,-1
 507 683 l 1,7,-1
 507 597 l 1,8,-1
 421 597 l 1,9,-1
 421 341 l 1,10,-1
 336 341 l 1,11,-1
 336 256 l 1,12,-1
 421 256 l 1,13,-1
 421 0 l 1,14,-1
 507 0 l 1,15,-1
 507 -85 l 1,16,-1
 336 -85 l 1,17,-1
 336 0 l 1,18,-1
 251 0 l 1,19,-1
 251 256 l 1,0,-1
EndSplineSet
Validated: 1
EndChar

StartChar: bar
Encoding: 124 124 95
Width: 683
Flags: W
LayerCount: 2
Fore
SplineSet
257 683 m 1,0,-1
 428 683 l 1,1,-1
 428 -85 l 1,2,-1
 257 -85 l 1,3,-1
 257 683 l 1,0,-1
EndSplineSet
Validated: 1
EndChar

StartChar: braceright
Encoding: 125 125 96
Width: 683
Flags: W
LayerCount: 2
Fore
SplineSet
452 341 m 1,0,-1
 538 341 l 1,1,-1
 538 256 l 1,2,-1
 452 256 l 1,3,-1
 452 0 l 1,4,-1
 367 0 l 1,5,-1
 367 -85 l 1,6,-1
 196 -85 l 1,7,-1
 196 0 l 1,8,-1
 282 0 l 1,9,-1
 282 256 l 1,10,-1
 367 256 l 1,11,-1
 367 341 l 1,12,-1
 282 341 l 1,13,-1
 282 597 l 1,14,-1
 196 597 l 1,15,-1
 196 683 l 1,16,-1
 367 683 l 1,17,-1
 367 597 l 1,18,-1
 452 597 l 1,19,-1
 452 341 l 1,0,-1
EndSplineSet
Validated: 1
EndChar

StartChar: asciitilde
Encoding: 126 126 97
Width: 683
Flags: W
LayerCount: 2
Fore
SplineSet
469 683 m 1,0,-1
 640 683 l 1,1,-1
 640 597 l 1,2,-1
 554 597 l 1,3,-1
 554 512 l 1,4,-1
 298 512 l 1,5,-1
 298 597 l 1,6,-1
 213 597 l 1,7,-1
 213 512 l 1,8,-1
 42 512 l 1,9,-1
 42 597 l 1,10,-1
 128 597 l 1,11,-1
 128 683 l 1,12,-1
 384 683 l 1,13,-1
 384 597 l 1,14,-1
 469 597 l 1,15,-1
 469 683 l 1,0,-1
EndSplineSet
Validated: 1
EndChar

